<svg width="256" height="256" viewBox="0 0 256 256" fill="none" xmlns="http://www.w3.org/2000/svg">
<circle cx="128" cy="128" r="128" fill="#6067F1" fill-opacity="0.29"/>
<path d="M127.497 136.621C146.212 136.621 162.643 112.468 162.643 92.9682C162.643 73.6883 146.888 58 127.497 58C108.099 58 92.3353 73.6866 92.3353 92.9682C92.337 112.468 108.775 136.621 127.497 136.621Z" fill="#6067F1"/>
<path d="M196.996 186.755C196.894 174.339 193.561 147.082 166.397 140.519H148.634C146.298 142.005 139.425 145.597 127.49 145.597C115.539 145.597 108.672 142.005 106.335 140.519H88.5652C61.7286 146.979 58.2041 174.374 58.0174 186.77C57.9928 188.154 57.9928 189.487 58.0272 190.447L74.4311 197.92H173.269L196.961 190.447C197.004 189.487 197.004 188.138 196.996 186.755Z" fill="#6067F1"/>
</svg>
