<svg width="100" height="100" viewBox="0 0 100 100" fill="none" xmlns="http://www.w3.org/2000/svg">
<path d="M49.9981 55.288C61.4251 55.288 71.4581 40.54 71.4581 28.634C71.4581 16.862 61.8381 7.28296 49.9981 7.28296C38.1541 7.28296 28.5291 16.861 28.5291 28.634C28.5301 40.54 38.5671 55.288 49.9981 55.288Z" fill="#DDDDDD"/>
<path d="M92.433 85.899C92.371 78.318 90.336 61.675 73.75 57.668H62.904C61.478 58.575 57.281 60.768 49.994 60.768C42.697 60.768 38.504 58.575 37.077 57.668H26.227C9.84105 61.612 7.68905 78.339 7.57505 85.908C7.56005 86.753 7.56005 87.567 7.58105 88.153L17.597 92.716H77.946L92.412 88.153C92.438 87.567 92.438 86.743 92.433 85.899Z" fill="#DDDDDD"/>
</svg>
