<svg width="64" height="64" viewBox="0 0 64 64" fill="none" xmlns="http://www.w3.org/2000/svg">
<path d="M51 46H50.057C50.278 44.066 51.139 42.275 52.536 40.879L52.708 40.707L51.294 39.293L51.122 39.465C49.347 41.24 48.275 43.531 48.047 46H44.942C44.422 40.442 39.479 36 33.656 36H26V41C26 42.103 25.103 43 24 43C20.691 43 18 40.309 18 37V36.755C15.362 37.785 13.217 39.793 12.01 42.418L11.742 43H9V51H11.742L12.01 51.582C13.002 53.739 14.701 55.551 16.796 56.684L17.234 56.921L17.858 61H22.153L22.653 58H33.346L33.846 61H38.141L38.765 56.927L39.204 56.691C42.513 54.91 44.622 51.665 44.949 48.001H48V49.001C48 50.655 49.346 52.001 51 52.001C52.654 52.001 54 50.655 54 49.001C54 47.347 52.654 46 51 46ZM17 44C16.448 44 16 43.552 16 43C16 42.448 16.448 42 17 42C17.552 42 18 42.448 18 43C18 43.552 17.552 44 17 44ZM41.879 48.535L36 54.414L30.121 48.535C29.398 47.812 29 46.851 29 45.828C29 43.718 30.718 42 32.828 42C33.85 42 34.812 42.398 35.535 43.121L36 43.586L36.465 43.121C37.188 42.398 38.149 42 39.172 42C41.282 42 43 43.718 43 45.828C43 46.851 42.602 47.812 41.879 48.535ZM51 50C50.448 50 50 49.552 50 49V48H51C51.552 48 52 48.448 52 49C52 49.552 51.552 50 51 50Z" fill="url(#paint0_linear)"/>
<path d="M20 35V37C20 39.206 21.794 41 24 41H24.002L24 35H20Z" fill="url(#paint1_linear)"/>
<path d="M39.172 44C38.691 44 38.219 44.195 37.879 44.535L36 46.414L34.121 44.535C33.781 44.195 33.31 44 32.828 44C31.82 44 31 44.82 31 45.828C31 46.309 31.195 46.781 31.535 47.121L36 51.586L40.465 47.121C40.805 46.781 41 46.31 41 45.828C41 44.82 40.18 44 39.172 44Z" fill="url(#paint2_linear)"/>
<path d="M13.641 25.326C13.931 26.293 14.317 27.225 14.786 28.097L15.081 28.645L13.043 31.498L16.694 35.148C17.13 34.953 17.578 34.782 18.038 34.635C18.209 33.707 19.022 33 20 33H24C24.737 33 25.375 33.405 25.722 34H33.656C35.658 34 37.551 34.438 39.255 35.202L42.958 31.499L40.92 28.646L41.215 28.098C41.684 27.226 42.069 26.293 42.36 25.327L42.54 24.73L46 24.153V17.847L42.539 17.27L42.359 16.674C42.069 15.707 41.683 14.774 41.214 13.902L40.919 13.354L42.957 10.501L38.497 6.042L35.646 8.08L35.098 7.785C34.228 7.317 33.295 6.931 32.326 6.64L31.729 6.46L31.152 3H24.847L24.27 6.46L23.675 6.64C22.705 6.932 21.773 7.317 20.903 7.785L20.354 8.08L17.501 6.042L13.041 10.501L15.079 13.354L14.784 13.902C14.315 14.774 13.93 15.707 13.639 16.674L13.459 17.27L10 17.847V24.153L13.461 24.73L13.641 25.326ZM42 20H44V22H42V20ZM38.606 33.021L37.192 31.607L38.606 30.193L40.02 31.607L38.606 33.021ZM38.606 8.979L40.02 10.393L38.606 11.807L37.192 10.393L38.606 8.979ZM27 5H29V7H27V5ZM28 10C34.065 10 39 14.935 39 21C39 23.531 38.117 26.003 36.515 27.961L34.968 26.694C36.278 25.093 37 23.07 37 21C37 16.038 32.963 12 28 12C25.93 12 23.907 12.722 22.307 14.032L21.039 12.484C22.997 10.882 25.469 10 28 10ZM26 20H30C31.654 20 33 21.346 33 23V24C33 25.654 31.654 27 30 27H29V28H27V27H26C24.346 27 23 25.654 23 24H25C25 24.551 25.448 25 26 25H30C30.552 25 31 24.551 31 24V23C31 22.449 30.552 22 30 22H26C24.346 22 23 20.654 23 19V18C23 16.346 24.346 15 26 15H27V14H29V15H30C31.654 15 33 16.346 33 18H31C31 17.449 30.552 17 30 17H26C25.448 17 25 17.449 25 18V19C25 19.551 25.448 20 26 20ZM21.032 15.306C19.722 16.907 19 18.93 19 21C19 25.962 23.037 30 28 30C30.07 30 32.093 29.278 33.693 27.968L34.961 29.516C33.003 31.118 30.531 32 28 32C21.935 32 17 27.065 17 21C17 18.469 17.883 15.997 19.485 14.039L21.032 15.306ZM17.394 8.979L18.808 10.393L17.394 11.807L15.98 10.393L17.394 8.979ZM17.394 30.192L18.808 31.606L17.394 33.02L15.98 31.606L17.394 30.192ZM12 20H14V22H12V20Z" fill="url(#paint3_linear)"/>
<defs>
<linearGradient id="paint0_linear" x1="31.5" y1="36" x2="31.5" y2="61" gradientUnits="userSpaceOnUse">
<stop stop-color="#6067F1"/>
<stop offset="1" stop-color="#6067F1" stop-opacity="0.5"/>
</linearGradient>
<linearGradient id="paint1_linear" x1="22.001" y1="35" x2="22.001" y2="41" gradientUnits="userSpaceOnUse">
<stop stop-color="#6067F1"/>
<stop offset="1" stop-color="#6067F1" stop-opacity="0.5"/>
</linearGradient>
<linearGradient id="paint2_linear" x1="36" y1="44" x2="36" y2="51.586" gradientUnits="userSpaceOnUse">
<stop stop-color="#6067F1"/>
<stop offset="1" stop-color="#6067F1" stop-opacity="0.5"/>
</linearGradient>
<linearGradient id="paint3_linear" x1="28" y1="3" x2="28" y2="35.202" gradientUnits="userSpaceOnUse">
<stop stop-color="#6067F1"/>
<stop offset="1" stop-color="#6067F1" stop-opacity="0.5"/>
</linearGradient>
</defs>
</svg>
