<svg width="64" height="64" viewBox="0 0 64 64" fill="none" xmlns="http://www.w3.org/2000/svg">
<path d="M32.618 37H59.382L55.382 29H28.618L32.618 37Z" fill="url(#paint0_linear)"/>
<path d="M9 39V61H26V32.236L22.618 39H9ZM13 59H11V57H13V59ZM13 55H11V53H13V55ZM13 51H11V49H13V51ZM24 59H15V57H24V59ZM24 55H15V53H24V55ZM24 51H15V49H24V51Z" fill="url(#paint1_linear)"/>
<path d="M25.382 29H8.61804L4.61804 37H21.382L25.382 29Z" fill="url(#paint2_linear)"/>
<path d="M28 32.236V61H55V39H31.382L28 32.236ZM50 50H46C44.346 50 43 48.654 43 47V46C43 44.346 44.346 43 46 43H47V41H49V43H50C51.654 43 53 44.346 53 46H51C51 45.449 50.551 45 50 45H46C45.449 45 45 45.449 45 46V47C45 47.551 45.449 48 46 48H50C51.654 48 53 49.346 53 51V52C53 53.654 51.654 55 50 55H49V57H47V55H46C44.346 55 43 53.654 43 52H45C45 52.551 45.449 53 46 53H50C50.551 53 51 52.551 51 52V51C51 50.449 50.551 50 50 50ZM38 57H40V59H38V57ZM34 57H36V59H34V57ZM32 59H30V57H32V59Z" fill="url(#paint3_linear)"/>
<path d="M11 27H29C29.552 27 30 26.552 30 26V24C30 23.448 29.552 23 29 23C29.552 23 30 22.552 30 22V20C30 19.448 29.552 19 29 19C29.552 19 30 18.552 30 18V16C30 15.448 29.552 15 29 15C29.552 15 30 14.552 30 14V12C30 11.448 29.552 11 29 11C29.552 11 30 10.552 30 10V8C30 7.448 29.552 7 29 7C29.552 7 30 6.552 30 6V4C30 3.448 29.552 3 29 3H11C10.448 3 10 3.448 10 4V6C10 6.552 10.448 7 11 7C10.448 7 10 7.448 10 8V10C10 10.552 10.448 11 11 11C10.448 11 10 11.448 10 12V14C10 14.552 10.448 15 11 15C10.448 15 10 15.448 10 16V18C10 18.552 10.448 19 11 19C10.448 19 10 19.448 10 20V22C10 22.552 10.448 23 11 23C10.448 23 10 23.448 10 24V26C10 26.552 10.448 27 11 27Z" fill="url(#paint4_linear)"/>
<path d="M35 27H53C53.552 27 54 26.552 54 26V24C54 23.448 53.552 23 53 23C53.552 23 54 22.552 54 22V20C54 19.448 53.552 19 53 19C53.552 19 54 18.552 54 18V16C54 15.448 53.552 15 53 15H35C34.448 15 34 15.448 34 16V18C34 18.552 34.448 19 35 19C34.448 19 34 19.448 34 20V22C34 22.552 34.448 23 35 23C34.448 23 34 23.448 34 24V26C34 26.552 34.448 27 35 27Z" fill="url(#paint5_linear)"/>
<defs>
<linearGradient id="paint0_linear" x1="44" y1="29" x2="44" y2="37" gradientUnits="userSpaceOnUse">
<stop stop-color="#6067F1"/>
<stop offset="1" stop-color="#6067F1" stop-opacity="0.51"/>
</linearGradient>
<linearGradient id="paint1_linear" x1="17.5" y1="32.236" x2="17.5" y2="61" gradientUnits="userSpaceOnUse">
<stop stop-color="#6067F1"/>
<stop offset="1" stop-color="#6067F1" stop-opacity="0.51"/>
</linearGradient>
<linearGradient id="paint2_linear" x1="15" y1="29" x2="15" y2="37" gradientUnits="userSpaceOnUse">
<stop stop-color="#6067F1"/>
<stop offset="1" stop-color="#6067F1" stop-opacity="0.51"/>
</linearGradient>
<linearGradient id="paint3_linear" x1="41.5" y1="32.236" x2="41.5" y2="61" gradientUnits="userSpaceOnUse">
<stop stop-color="#6067F1"/>
<stop offset="1" stop-color="#6067F1" stop-opacity="0.51"/>
</linearGradient>
<linearGradient id="paint4_linear" x1="20" y1="3" x2="20" y2="27" gradientUnits="userSpaceOnUse">
<stop stop-color="#6067F1"/>
<stop offset="1" stop-color="#6067F1" stop-opacity="0.51"/>
</linearGradient>
<linearGradient id="paint5_linear" x1="44" y1="15" x2="44" y2="27" gradientUnits="userSpaceOnUse">
<stop stop-color="#6067F1"/>
<stop offset="1" stop-color="#6067F1" stop-opacity="0.51"/>
</linearGradient>
</defs>
</svg>
