<svg width="64" height="64" viewBox="0 0 64 64" fill="none" xmlns="http://www.w3.org/2000/svg">
<path d="M21 6H19V8H21V6Z" fill="url(#paint0_linear)"/>
<path d="M25 6H23V8H25V6Z" fill="url(#paint1_linear)"/>
<path d="M29 6H27V8H29V6Z" fill="url(#paint2_linear)"/>
<path d="M61 35H59V37H61V35Z" fill="url(#paint3_linear)"/>
<path d="M61 39H59V41H61V39Z" fill="url(#paint4_linear)"/>
<path d="M61 43H59V45H61V43Z" fill="url(#paint5_linear)"/>
<path d="M27 41V38.659C24.911 38.376 22.876 38.186 21 38.087V41H27Z" fill="url(#paint6_linear)"/>
<path d="M13 32V36H17V20H13V24H15V26H13V30H15V32H13Z" fill="url(#paint7_linear)"/>
<path d="M25 25V31C25 31.552 25.448 32 26 32H29V24H26C25.448 24 25 24.448 25 25Z" fill="url(#paint8_linear)"/>
<path d="M10 11C11.654 11 13 9.654 13 8V6C13 4.346 11.654 3 10 3C8.346 3 7 4.346 7 6V8C7 9.654 8.346 11 10 11Z" fill="url(#paint9_linear)"/>
<path d="M53 28C53 25.243 50.757 23 48 23V33C50.757 33 53 30.757 53 28Z" fill="url(#paint10_linear)"/>
<path d="M29 33.9999H26C24.346 33.9999 23 32.6539 23 30.9999V24.9999C23 23.3459 24.346 21.9999 26 21.9999H29V19.0649C25.434 19.6299 21.935 19.9339 19 19.9899V36.0099C21.935 36.0669 25.434 36.3699 29 36.9349V33.9999Z" fill="url(#paint11_linear)"/>
<path d="M6.99902 45H2.99902V61H6.99902V45Z" fill="url(#paint12_linear)"/>
<path d="M49.761 36.836L50.329 36.684C51.093 36.479 51.821 36.178 52.495 35.788L53.005 35.494L54.916 36.64L56.641 34.915L55.495 33.004L55.789 32.494C56.179 31.82 56.479 31.092 56.685 30.328L56.837 29.76L59 29.22V26.78L56.836 26.239L56.684 25.671C56.479 24.907 56.178 24.179 55.788 23.505L55.494 22.995L56.64 21.084L54.915 19.359L53.004 20.505L52.494 20.211C51.82 19.821 51.092 19.521 50.328 19.315L49.76 19.163L49.22 17H48V21C51.859 21 55 24.141 55 28C55 31.859 51.859 35 48 35V39H49.22L49.761 36.836Z" fill="url(#paint13_linear)"/>
<path d="M32 59H25.999C25.447 59 24.999 59.448 24.999 60C24.999 60.552 25.447 61 25.999 61H27H32C32.552 61 33 60.552 33 60C33 59.448 32.552 59 32 59Z" fill="url(#paint14_linear)"/>
<path d="M31 37.28C34.917 38.009 38.796 39.061 42 40.459V15.541C38.796 16.939 34.917 17.991 31 18.72V37.28Z" fill="url(#paint15_linear)"/>
<path d="M32 47H29H25.999C25.447 47 24.999 47.448 24.999 48C24.999 48.552 25.447 49 25.999 49H32C32.552 49 33 48.552 33 48C33 47.448 32.552 47 32 47Z" fill="url(#paint16_linear)"/>
<path d="M32 51H25.999C25.447 51 24.999 51.448 24.999 52C24.999 52.552 25.447 53 25.999 53H32C32.552 53 33 52.552 33 52C33 51.448 32.552 51 32 51Z" fill="url(#paint17_linear)"/>
<path d="M45 13C44.448 13 44 13.448 44 14V42C44 42.552 44.448 43 45 43C45.552 43 46 42.552 46 42V14C46 13.448 45.552 13 45 13Z" fill="url(#paint18_linear)"/>
<path d="M9 34.9849L11 35.6279V20.3719L9 21.0149V22.9999V34.9849Z" fill="url(#paint19_linear)"/>
<path d="M25.999 45H29C29.552 45 30 44.552 30 44C30 43.448 29.552 43 29 43H19.657C18.855 43 18.101 43.312 17.535 43.879L15.879 45.535C14.935 46.479 13.679 47 12.343 47H8.99902V58H10.343C11.679 58 12.935 58.521 13.879 59.465L14.535 60.121C15.102 60.688 15.855 61 16.657 61H19V49.414L17.707 50.707L16.293 49.293L20.586 45H25.999Z" fill="url(#paint20_linear)"/>
<path d="M32 55H25.999C25.447 55 24.999 55.448 24.999 56C24.999 56.552 25.447 57 25.999 57H32C32.552 57 33 56.552 33 56C33 55.448 32.552 55 32 55Z" fill="url(#paint21_linear)"/>
<path d="M16.706 18C15.838 15.084 13.135 13 10 13C6.141 13 3 16.141 3 20V21H7V19.558L12 18H16.706Z" fill="url(#paint22_linear)"/>
<path d="M22.999 48C22.999 47.648 23.071 47.314 23.183 47H21.414L21 47.414V61H23.183C23.071 60.686 22.999 60.352 22.999 60C22.999 59.229 23.3 58.532 23.779 58C23.299 57.468 22.999 56.771 22.999 56C22.999 55.229 23.3 54.532 23.779 54C23.299 53.468 22.999 52.771 22.999 52C22.999 51.229 23.3 50.532 23.779 50C23.3 49.468 22.999 48.771 22.999 48Z" fill="url(#paint23_linear)"/>
<path d="M54 53C50.141 53 47 56.141 47 60V61H61V60C61 56.141 57.859 53 54 53Z" fill="url(#paint24_linear)"/>
<path d="M54 43C52.346 43 51 44.346 51 46V48C51 49.654 52.346 51 54 51C55.654 51 57 49.654 57 48V46C57 44.346 55.654 43 54 43Z" fill="url(#paint25_linear)"/>
<defs>
<linearGradient id="paint0_linear" x1="20" y1="6" x2="20" y2="8" gradientUnits="userSpaceOnUse">
<stop stop-color="#6067F1"/>
<stop offset="1" stop-color="#6067F1" stop-opacity="0.5"/>
</linearGradient>
<linearGradient id="paint1_linear" x1="24" y1="6" x2="24" y2="8" gradientUnits="userSpaceOnUse">
<stop stop-color="#6067F1"/>
<stop offset="1" stop-color="#6067F1" stop-opacity="0.5"/>
</linearGradient>
<linearGradient id="paint2_linear" x1="28" y1="6" x2="28" y2="8" gradientUnits="userSpaceOnUse">
<stop stop-color="#6067F1"/>
<stop offset="1" stop-color="#6067F1" stop-opacity="0.5"/>
</linearGradient>
<linearGradient id="paint3_linear" x1="60" y1="35" x2="60" y2="37" gradientUnits="userSpaceOnUse">
<stop stop-color="#6067F1"/>
<stop offset="1" stop-color="#6067F1" stop-opacity="0.5"/>
</linearGradient>
<linearGradient id="paint4_linear" x1="60" y1="39" x2="60" y2="41" gradientUnits="userSpaceOnUse">
<stop stop-color="#6067F1"/>
<stop offset="1" stop-color="#6067F1" stop-opacity="0.5"/>
</linearGradient>
<linearGradient id="paint5_linear" x1="60" y1="43" x2="60" y2="45" gradientUnits="userSpaceOnUse">
<stop stop-color="#6067F1"/>
<stop offset="1" stop-color="#6067F1" stop-opacity="0.5"/>
</linearGradient>
<linearGradient id="paint6_linear" x1="24" y1="38.087" x2="24" y2="41" gradientUnits="userSpaceOnUse">
<stop stop-color="#6067F1"/>
<stop offset="1" stop-color="#6067F1" stop-opacity="0.5"/>
</linearGradient>
<linearGradient id="paint7_linear" x1="15" y1="20" x2="15" y2="36" gradientUnits="userSpaceOnUse">
<stop stop-color="#6067F1"/>
<stop offset="1" stop-color="#6067F1" stop-opacity="0.5"/>
</linearGradient>
<linearGradient id="paint8_linear" x1="27" y1="24" x2="27" y2="32" gradientUnits="userSpaceOnUse">
<stop stop-color="#6067F1"/>
<stop offset="1" stop-color="#6067F1" stop-opacity="0.5"/>
</linearGradient>
<linearGradient id="paint9_linear" x1="10" y1="3" x2="10" y2="11" gradientUnits="userSpaceOnUse">
<stop stop-color="#6067F1"/>
<stop offset="1" stop-color="#6067F1" stop-opacity="0.5"/>
</linearGradient>
<linearGradient id="paint10_linear" x1="50.5" y1="23" x2="50.5" y2="33" gradientUnits="userSpaceOnUse">
<stop stop-color="#6067F1"/>
<stop offset="1" stop-color="#6067F1" stop-opacity="0.5"/>
</linearGradient>
<linearGradient id="paint11_linear" x1="24" y1="19.0649" x2="24" y2="36.9349" gradientUnits="userSpaceOnUse">
<stop stop-color="#6067F1"/>
<stop offset="1" stop-color="#6067F1" stop-opacity="0.5"/>
</linearGradient>
<linearGradient id="paint12_linear" x1="4.99902" y1="45" x2="4.99902" y2="61" gradientUnits="userSpaceOnUse">
<stop stop-color="#6067F1"/>
<stop offset="1" stop-color="#6067F1" stop-opacity="0.5"/>
</linearGradient>
<linearGradient id="paint13_linear" x1="53.5" y1="17" x2="53.5" y2="39" gradientUnits="userSpaceOnUse">
<stop stop-color="#6067F1"/>
<stop offset="1" stop-color="#6067F1" stop-opacity="0.5"/>
</linearGradient>
<linearGradient id="paint14_linear" x1="28.9995" y1="59" x2="28.9995" y2="61" gradientUnits="userSpaceOnUse">
<stop stop-color="#6067F1"/>
<stop offset="1" stop-color="#6067F1" stop-opacity="0.5"/>
</linearGradient>
<linearGradient id="paint15_linear" x1="36.5" y1="15.541" x2="36.5" y2="40.459" gradientUnits="userSpaceOnUse">
<stop stop-color="#6067F1"/>
<stop offset="1" stop-color="#6067F1" stop-opacity="0.5"/>
</linearGradient>
<linearGradient id="paint16_linear" x1="28.9995" y1="47" x2="28.9995" y2="49" gradientUnits="userSpaceOnUse">
<stop stop-color="#6067F1"/>
<stop offset="1" stop-color="#6067F1" stop-opacity="0.5"/>
</linearGradient>
<linearGradient id="paint17_linear" x1="28.9995" y1="51" x2="28.9995" y2="53" gradientUnits="userSpaceOnUse">
<stop stop-color="#6067F1"/>
<stop offset="1" stop-color="#6067F1" stop-opacity="0.5"/>
</linearGradient>
<linearGradient id="paint18_linear" x1="45" y1="13" x2="45" y2="43" gradientUnits="userSpaceOnUse">
<stop stop-color="#6067F1"/>
<stop offset="1" stop-color="#6067F1" stop-opacity="0.5"/>
</linearGradient>
<linearGradient id="paint19_linear" x1="10" y1="20.3719" x2="10" y2="35.6279" gradientUnits="userSpaceOnUse">
<stop stop-color="#6067F1"/>
<stop offset="1" stop-color="#6067F1" stop-opacity="0.5"/>
</linearGradient>
<linearGradient id="paint20_linear" x1="19.4995" y1="43" x2="19.4995" y2="61" gradientUnits="userSpaceOnUse">
<stop stop-color="#6067F1"/>
<stop offset="1" stop-color="#6067F1" stop-opacity="0.5"/>
</linearGradient>
<linearGradient id="paint21_linear" x1="28.9995" y1="55" x2="28.9995" y2="57" gradientUnits="userSpaceOnUse">
<stop stop-color="#6067F1"/>
<stop offset="1" stop-color="#6067F1" stop-opacity="0.5"/>
</linearGradient>
<linearGradient id="paint22_linear" x1="9.853" y1="13" x2="9.853" y2="21" gradientUnits="userSpaceOnUse">
<stop stop-color="#6067F1"/>
<stop offset="1" stop-color="#6067F1" stop-opacity="0.5"/>
</linearGradient>
<linearGradient id="paint23_linear" x1="22.3895" y1="47" x2="22.3895" y2="61" gradientUnits="userSpaceOnUse">
<stop stop-color="#6067F1"/>
<stop offset="1" stop-color="#6067F1" stop-opacity="0.5"/>
</linearGradient>
<linearGradient id="paint24_linear" x1="54" y1="53" x2="54" y2="61" gradientUnits="userSpaceOnUse">
<stop stop-color="#6067F1"/>
<stop offset="1" stop-color="#6067F1" stop-opacity="0.5"/>
</linearGradient>
<linearGradient id="paint25_linear" x1="54" y1="43" x2="54" y2="51" gradientUnits="userSpaceOnUse">
<stop stop-color="#6067F1"/>
<stop offset="1" stop-color="#6067F1" stop-opacity="0.5"/>
</linearGradient>
</defs>
</svg>
