<svg width="26" height="26" viewBox="0 0 26 26" fill="none" xmlns="http://www.w3.org/2000/svg">
<path d="M8.84922 5.2345C6.75601 5.23453 5.05915 6.93142 5.05917 9.02463C5.05918 11.0165 6.59572 12.6493 8.54814 12.8028C8.49278 12.6643 8.44475 12.5226 8.4061 12.3772C7.58733 9.90645 9.21822 7.14903 11.6119 6.43015C10.9205 5.69425 9.93862 5.23449 8.84922 5.2345V5.2345ZM17.1516 5.2345C16.0516 5.23451 15.0612 5.70332 14.3689 6.45183C15.2348 6.71626 16.0229 7.22737 16.6153 7.91683C17.8531 9.25593 18.0338 11.196 17.3829 12.8074C19.3684 12.6879 20.9417 11.0401 20.9417 9.02463C20.9418 6.93139 19.2449 5.23448 17.1516 5.2345ZM13.0005 7.20779C10.9072 7.20783 9.21039 8.90472 9.21041 10.9979C9.21041 13.0911 10.9073 14.7879 13.0005 14.788C15.0937 14.788 16.7906 13.0911 16.7906 10.9979C16.7906 8.90469 15.0937 7.20778 13.0005 7.20779V7.20779ZM4.75411 13.112C2.80727 13.0749 1.51077 16.2715 1.29999 18.7923H4.79006C5.09836 17.5613 5.60931 16.3763 6.43015 15.3673C6.98136 14.6513 7.77159 14.2724 8.58705 14.1589C8.85354 14.1218 9.1226 14.1205 9.39111 14.1344C9.35151 14.0901 9.31287 14.0448 9.27472 13.9991C9.14207 14.0137 9.00135 14.0219 8.84922 14.0219C7.27704 14.0211 6.88628 13.1526 4.75411 13.112V13.112ZM21.2431 13.119C19.1131 13.1584 18.7238 14.0226 17.1516 14.0219C16.9893 14.0218 16.8401 14.0121 16.6997 13.9954C16.6583 14.0484 16.6157 14.1006 16.572 14.1518C17.2032 14.1012 17.8634 14.1604 18.4616 14.4892L18.4736 14.4961L18.4851 14.5037C20.0215 15.5014 20.783 17.1142 21.1868 18.7923H24.7C24.4863 16.2739 23.1877 13.0829 21.2431 13.119V13.119ZM8.90535 15.0853C6.95851 15.0482 5.66201 18.2449 5.45122 20.7656H20.5488C20.3351 18.2472 19.0366 15.0562 17.0919 15.0923C14.9619 15.1317 14.5727 15.9959 13.0005 15.9952C11.4283 15.9944 11.0375 15.1259 8.90535 15.0853V15.0853Z" fill="url(#paint0_linear)"/>
<defs>
<linearGradient id="paint0_linear" x1="13" y1="5.2345" x2="13" y2="20.7656" gradientUnits="userSpaceOnUse">
<stop stop-color="#03AF60"/>
<stop offset="1" stop-color="#0ACD9D"/>
</linearGradient>
</defs>
</svg>
