<svg width="26" height="26" viewBox="0 0 26 26" fill="none" xmlns="http://www.w3.org/2000/svg">
<path d="M22.2408 2.25C21.5934 2.25 21.0812 2.76265 21.0812 3.41013V23.0356C21.0812 23.6831 21.5934 24.1952 22.2408 24.1952H22.4481C23.0955 24.1952 23.6077 23.6831 23.6077 23.0356V15.095V11.3512V3.41013C23.6077 2.76265 23.0955 2.25 22.4481 2.25H22.2408V2.25ZM20.4699 3.74136C16.6345 7.24625 14.3655 8.95914 7.88886 9.09196C7.85386 9.10758 7.81608 9.11602 7.77775 9.11676C7.65321 9.11876 7.52241 9.11863 7.39432 9.11935V12.652V12.6531V13.793V17.3265C7.52236 17.3275 7.65288 17.3276 7.77775 17.3296C7.7793 17.3296 7.78085 17.3296 7.7824 17.3296C7.78277 17.3296 7.78305 17.3296 7.78344 17.3296C8.00657 17.3331 8.22574 17.3376 8.43973 17.3446C8.47805 17.3462 8.51566 17.3555 8.55032 17.372C14.5259 17.6064 16.7679 19.3219 20.4699 22.7048V13.7927V12.6517V3.7412L20.4699 3.74136ZM1.73896 9.04936C1.08828 9.04936 0.573669 9.56397 0.573669 10.2147V16.2283C0.573669 16.879 1.08828 17.3936 1.73896 17.3936H6.82233V13.7924V12.6524V12.6519V9.05017H1.73896V9.04965V9.04936ZM5.83228 10.8363C5.87089 10.8354 5.90929 10.8422 5.94517 10.8565C5.98106 10.8708 6.01368 10.8922 6.04108 10.9195C6.06847 10.9467 6.09008 10.9792 6.10459 11.015C6.11911 11.0507 6.12623 11.0891 6.12553 11.1277C6.12483 11.1663 6.11633 11.2044 6.10053 11.2397C6.08474 11.2749 6.06197 11.3066 6.03361 11.3328C6.00525 11.359 5.97187 11.3792 5.9355 11.3922C5.89912 11.4052 5.86049 11.4107 5.82194 11.4084H2.00511C1.96608 11.4108 1.92697 11.4052 1.89018 11.3919C1.8534 11.3787 1.81972 11.358 1.79122 11.3313C1.76272 11.3045 1.74001 11.2722 1.72449 11.2363C1.70896 11.2004 1.70095 11.1617 1.70095 11.1226C1.70095 11.0835 1.70896 11.0448 1.72449 11.0089C1.74001 10.973 1.76272 10.9407 1.79122 10.9139C1.81972 10.8871 1.8534 10.8665 1.89018 10.8532C1.92697 10.84 1.96608 10.8344 2.00511 10.8368H5.82194C5.82538 10.8366 5.82883 10.8364 5.83228 10.8363V10.8363ZM24.2629 11.5996C24.235 11.6006 24.2076 11.6074 24.1797 11.6084V14.8349C24.2076 14.8369 24.235 14.8437 24.2629 14.8437C25.1623 14.8437 25.8861 14.121 25.8861 13.2216C25.8861 12.3226 25.1632 11.6007 24.2645 11.6H24.2629V11.5995L24.2629 11.5996ZM5.83175 12.9354C5.86966 12.9355 5.90717 12.9432 5.94209 12.958C5.97702 12.9728 6.00866 12.9943 6.03518 13.0214C6.0617 13.0485 6.08258 13.0806 6.0966 13.1158C6.11063 13.1511 6.11751 13.1887 6.11686 13.2266C6.11621 13.2646 6.10804 13.302 6.09282 13.3367C6.0776 13.3714 6.05563 13.4028 6.02819 13.4289C6.00075 13.4551 5.96839 13.4756 5.93299 13.4891C5.89758 13.5027 5.85983 13.5091 5.82193 13.508H2.0051C1.96643 13.5097 1.9278 13.5037 1.89154 13.4901C1.85528 13.4765 1.82215 13.4557 1.79416 13.429C1.76616 13.4023 1.74387 13.3701 1.72865 13.3345C1.71342 13.299 1.70557 13.2606 1.70557 13.2219C1.70557 13.1832 1.71342 13.1449 1.72865 13.1093C1.74387 13.0737 1.76616 13.0416 1.79416 13.0149C1.82215 12.9881 1.85528 12.9673 1.89154 12.9538C1.9278 12.9402 1.96643 12.9341 2.0051 12.9359H5.82193C5.8252 12.9357 5.82847 12.9355 5.83175 12.9354V12.9354ZM2.00513 15.0355H5.82196C5.86045 15.0341 5.89883 15.0405 5.93481 15.0543C5.97078 15.068 6.00361 15.0889 6.03133 15.1157C6.05905 15.1424 6.0811 15.1745 6.09616 15.2099C6.11122 15.2454 6.11899 15.2835 6.11899 15.322C6.11899 15.3605 6.11122 15.3987 6.09616 15.4341C6.0811 15.4696 6.05905 15.5016 6.03133 15.5284C6.00361 15.5551 5.97078 15.576 5.93481 15.5898C5.89883 15.6036 5.86045 15.6099 5.82196 15.6086H2.00513C1.96663 15.6099 1.92825 15.6036 1.89228 15.5898C1.85631 15.576 1.82348 15.5551 1.79575 15.5284C1.76803 15.5016 1.74598 15.4696 1.73092 15.4341C1.71586 15.3987 1.7081 15.3605 1.7081 15.322C1.7081 15.2835 1.71586 15.2454 1.73092 15.2099C1.74598 15.1745 1.76803 15.1424 1.79575 15.1157C1.82348 15.0889 1.85631 15.068 1.89228 15.0543C1.92825 15.0405 1.96663 15.0341 2.00513 15.0355V15.0355ZM7.80525 17.9025C7.65679 17.9436 7.50045 17.9671 7.33914 17.9671H6.29942V18.9773C6.51556 19.2184 6.80892 19.3825 7.13502 19.383C7.77043 19.383 8.27996 18.8741 8.28067 18.2389C8.28033 18.1258 8.23946 18.0193 8.20626 17.9118C8.07359 17.9088 7.94192 17.905 7.80526 17.903V17.9025L7.80525 17.9025ZM4.55118 18.1267V23.6205C4.55118 23.9511 4.80822 24.208 5.13873 24.208C5.46925 24.208 5.72785 23.951 5.72785 23.6205V19.1258V18.1269H4.55118V18.1267Z" fill="url(#paint0_linear)"/>
<defs>
<linearGradient id="paint0_linear" x1="13.2299" y1="2.25" x2="13.2299" y2="24.208" gradientUnits="userSpaceOnUse">
<stop stop-color="#03AF60"/>
<stop offset="1" stop-color="#49E19B" stop-opacity="0.58"/>
</linearGradient>
</defs>
</svg>
