<svg width="26" height="26" viewBox="0 0 26 26" fill="none" xmlns="http://www.w3.org/2000/svg">
<path d="M4.22064 17.8464C4.22064 18.34 4.62798 18.7434 5.12631 18.7434H6.01464V6.84155H4.22064V17.8464Z" fill="url(#paint0_linear)"/>
<path d="M21.346 4.25342H10.0707V7.69136H21.346V4.25342Z" fill="url(#paint1_linear)"/>
<path d="M3.75266 24.2545H3.76133H3.76566C5.00066 24.2545 6.01466 23.2544 6.01466 22.0269V19.6491H5.12633C4.11666 19.6491 3.302 18.8422 3.302 17.8421V6.84155H2.37033C1.898 6.84155 1.51233 7.21925 1.51233 7.69138V21.9668C1.51233 22.4175 1.62066 22.8681 1.872 23.2415C2.30533 23.8853 3.00733 24.2545 3.75266 24.2545Z" fill="url(#paint2_linear)"/>
<path d="M13.273 18.3657H10.2094V21.3144H13.273V18.3657Z" fill="url(#paint3_linear)"/>
<path d="M6.93331 2.34775V22.0269C6.93331 22.8982 6.57365 23.6836 5.99731 24.2544H22.308C23.5126 24.2244 24.492 23.2243 24.492 22.0269V2.34775C24.492 1.87992 24.1106 1.49792 23.634 1.49792H7.78698C7.31465 1.49792 6.93331 1.87992 6.93331 2.34775ZM14.1916 21.7693C14.1916 22.0183 13.9836 22.2243 13.7323 22.2243H9.74998C9.49431 22.2243 9.29065 22.0183 9.29065 21.7693V17.9108C9.29065 17.6618 9.49431 17.4558 9.74998 17.4558H13.7323C13.9836 17.4558 14.1916 17.6618 14.1916 17.9108V21.7693ZM10.27 12.3354H13.52C13.7713 12.3354 13.9793 12.5414 13.9793 12.7903C13.9793 13.0393 13.7713 13.2453 13.52 13.2453H10.27C10.0186 13.2453 9.81065 13.0393 9.81065 12.7903C9.81065 12.5414 10.0143 12.3354 10.27 12.3354ZM9.80631 10.2967C9.80631 10.0477 10.0143 9.8417 10.2656 9.8417H13.5156C13.767 9.8417 13.975 10.0477 13.975 10.2967C13.975 10.5456 13.767 10.7516 13.5156 10.7516H10.2656C10.0143 10.7516 9.80631 10.5499 9.80631 10.2967ZM10.27 14.8248H13.52C13.7713 14.8248 13.9793 15.0308 13.9793 15.2797C13.9793 15.533 13.7713 15.7347 13.52 15.7347H10.27C10.0186 15.7347 9.81065 15.533 9.81065 15.2797C9.80631 15.0308 10.0143 14.8248 10.27 14.8248ZM15.6303 15.2797C15.6303 15.0308 15.8383 14.8248 16.0896 14.8248H21.151C21.4023 14.8248 21.6103 15.0308 21.6103 15.2797C21.6103 15.533 21.4023 15.7347 21.151 15.7347H16.0896C15.8383 15.739 15.6303 15.5373 15.6303 15.2797ZM16.0896 12.3354H21.151C21.4023 12.3354 21.6103 12.5414 21.6103 12.7903C21.6103 13.0393 21.4023 13.2453 21.151 13.2453H16.0896C15.8383 13.2453 15.6303 13.0393 15.6303 12.7903C15.6303 12.5414 15.8383 12.3354 16.0896 12.3354ZM15.6303 10.2967C15.6303 10.0477 15.8383 9.8417 16.0896 9.8417H21.151C21.4023 9.8417 21.6103 10.0477 21.6103 10.2967C21.6103 10.5456 21.4023 10.7516 21.151 10.7516H16.0896C15.8383 10.7516 15.6303 10.5499 15.6303 10.2967ZM21.9136 21.7693C21.9136 22.0183 21.7056 22.2243 21.4543 22.2243H17.472C17.2163 22.2243 17.0126 22.0183 17.0126 21.7693V17.9108C17.0126 17.6618 17.2163 17.4558 17.472 17.4558H21.4543C21.7056 17.4558 21.9136 17.6618 21.9136 17.9108V21.7693ZM9.15198 3.79847C9.15198 3.54953 9.35998 3.34351 9.61131 3.34351H21.8096C22.061 3.34351 22.269 3.54953 22.269 3.79847V8.14633C22.269 8.39956 22.061 8.60129 21.8096 8.60129H9.61131C9.35998 8.60129 9.15198 8.39956 9.15198 8.14633V3.79847Z" fill="url(#paint4_linear)"/>
<path d="M20.9907 18.3657H17.927V21.3144H20.9907V18.3657Z" fill="url(#paint5_linear)"/>
<defs>
<linearGradient id="paint0_linear" x1="5.11764" y1="6.84155" x2="5.11764" y2="18.7434" gradientUnits="userSpaceOnUse">
<stop stop-color="#03AF60"/>
<stop offset="1" stop-color="#49E19B" stop-opacity="0.58"/>
</linearGradient>
<linearGradient id="paint1_linear" x1="15.7083" y1="4.25342" x2="15.7083" y2="7.69136" gradientUnits="userSpaceOnUse">
<stop stop-color="#03AF60"/>
<stop offset="1" stop-color="#49E19B" stop-opacity="0.58"/>
</linearGradient>
<linearGradient id="paint2_linear" x1="3.7635" y1="6.84155" x2="3.7635" y2="24.2545" gradientUnits="userSpaceOnUse">
<stop stop-color="#03AF60"/>
<stop offset="1" stop-color="#49E19B" stop-opacity="0.58"/>
</linearGradient>
<linearGradient id="paint3_linear" x1="11.7412" y1="18.3657" x2="11.7412" y2="21.3144" gradientUnits="userSpaceOnUse">
<stop stop-color="#03AF60"/>
<stop offset="1" stop-color="#49E19B" stop-opacity="0.58"/>
</linearGradient>
<linearGradient id="paint4_linear" x1="15.2446" y1="1.49792" x2="15.2446" y2="24.2544" gradientUnits="userSpaceOnUse">
<stop stop-color="#03AF60"/>
<stop offset="1" stop-color="#49E19B" stop-opacity="0.58"/>
</linearGradient>
<linearGradient id="paint5_linear" x1="19.4588" y1="18.3657" x2="19.4588" y2="21.3144" gradientUnits="userSpaceOnUse">
<stop stop-color="#03AF60"/>
<stop offset="1" stop-color="#49E19B" stop-opacity="0.58"/>
</linearGradient>
</defs>
</svg>
