<svg width="26" height="26" viewBox="0 0 26 26" fill="none" xmlns="http://www.w3.org/2000/svg">
<path d="M10.186 2.43751C11.1394 1.89584 13.6283 0.812506 15.9358 2.68396C16.0577 2.77605 18.7552 4.81542 22.3654 3.15521V10.159C22.3654 10.3026 22.4225 10.4404 22.5241 10.542C22.6256 10.6436 22.7634 10.7006 22.9071 10.7006C23.0507 10.7006 23.1885 10.6436 23.2901 10.542C23.3917 10.4404 23.4487 10.3026 23.4487 10.159V2.25063C23.4482 2.15583 23.4227 2.06283 23.3749 1.98094C23.3272 1.89905 23.2587 1.83113 23.1765 1.78398C23.0942 1.73682 23.0011 1.71208 22.9063 1.71222C22.8114 1.71237 22.7183 1.73739 22.6362 1.7848C19.2671 3.79167 16.705 1.89584 16.6075 1.82813C13.8125 -0.425202 10.8333 0.831465 9.65519 1.4923C9.53057 1.56413 9.43958 1.68252 9.40225 1.82144C9.36492 1.96035 9.3843 2.1084 9.45613 2.23303C9.52796 2.35765 9.64635 2.44864 9.78527 2.48597C9.92418 2.5233 10.0722 2.50392 10.1969 2.43209L10.186 2.43751Z" fill="url(#paint0_linear)"/>
<path d="M5.91231 15.4429H1.08335C0.784199 15.4429 0.541687 15.6854 0.541687 15.9845V24.9166C0.541687 25.2158 0.784199 25.4583 1.08335 25.4583H5.91231C6.21147 25.4583 6.45398 25.2158 6.45398 24.9166V15.9845C6.45398 15.6854 6.21147 15.4429 5.91231 15.4429Z" fill="url(#paint1_linear)"/>
<path d="M25.4231 18.1107C25.3452 17.7736 25.154 17.4734 24.8814 17.2603C24.6225 17.0674 24.3155 16.9495 23.994 16.9194C23.6725 16.8893 23.349 16.9482 23.0587 17.0896L18.6306 19.1723C18.6117 19.0384 18.5734 18.9079 18.5169 18.7851C18.3977 18.5615 18.2333 18.3652 18.0342 18.2086C17.8352 18.0519 17.6057 17.9383 17.3604 17.8751C17.2968 17.8642 17.2317 17.8642 17.1681 17.8751C14.9012 18.1269 14.6683 18.0132 13.5498 17.4688C13.2248 17.3117 12.8212 17.114 12.2904 16.8865C11.0856 16.4022 9.7428 16.3886 8.52852 16.8486C8.3177 16.9235 8.13526 17.0619 8.00626 17.2448C7.87726 17.4276 7.80804 17.6459 7.80811 17.8696V24.3696H14.801C15.8083 24.3682 16.7992 24.114 17.6827 23.6303L24.6458 19.7709C24.9364 19.6142 25.1688 19.3682 25.3088 19.0692C25.4487 18.7702 25.4888 18.4342 25.4231 18.1107V18.1107Z" fill="url(#paint2_linear)"/>
<path d="M13.6717 14.0509C14.7209 14.7844 15.9719 15.1742 17.2521 15.1667C18.5516 15.1494 19.8213 14.7746 20.9219 14.0834C21.0037 14.0361 21.0718 13.9682 21.1193 13.8865C21.1668 13.8048 21.1921 13.7121 21.1927 13.6175V5.17025C21.1917 5.07568 21.1659 4.98302 21.1179 4.90151C21.07 4.81999 21.0015 4.75246 20.9193 4.70562C20.8371 4.65878 20.7441 4.63428 20.6496 4.63454C20.555 4.63481 20.4621 4.65983 20.3802 4.70713C17.0192 6.72484 14.4571 4.82359 14.3596 4.75046C10.8063 1.87692 6.93063 4.70713 6.89001 4.73692C6.82273 4.78737 6.76813 4.8528 6.73053 4.92801C6.69292 5.00323 6.67334 5.08616 6.67334 5.17025V13.623C6.67334 13.7236 6.70135 13.8222 6.75424 13.9077C6.80712 13.9933 6.88279 14.0625 6.97277 14.1074C7.06274 14.1524 7.16346 14.1715 7.26365 14.1624C7.36384 14.1534 7.45953 14.1167 7.54001 14.0563C7.55355 14.0346 10.7575 11.6946 13.6717 14.0509ZM14.2133 8.42567C14.2102 8.41231 14.2102 8.39841 14.2133 8.38504C14.2225 8.37198 14.2359 8.36243 14.2513 8.35796C14.2739 8.34902 14.2976 8.34266 14.3217 8.339H14.43H14.5383C14.5624 8.34266 14.5861 8.34902 14.6088 8.35796C14.6241 8.36243 14.6375 8.37198 14.6467 8.38504C14.6498 8.39841 14.6498 8.41231 14.6467 8.42567V8.66671C14.6967 8.60856 14.751 8.55424 14.8092 8.50421C14.8583 8.45885 14.9129 8.41974 14.9717 8.38775C15.025 8.35651 15.0824 8.33281 15.1423 8.31734C15.2045 8.303 15.2681 8.29573 15.3319 8.29567C15.4514 8.29016 15.5701 8.31786 15.6748 8.37571C15.7795 8.43356 15.8661 8.51928 15.925 8.62338C15.9906 8.73375 16.0365 8.85473 16.0604 8.98088C16.0905 9.12424 16.1051 9.27044 16.1038 9.41692C16.1051 9.58189 16.0869 9.74644 16.0496 9.90713C16.0245 10.0435 15.974 10.174 15.9006 10.2917C15.8327 10.3928 15.7393 10.474 15.6298 10.5273C15.5197 10.5852 15.3967 10.6141 15.2723 10.6113C15.2211 10.6122 15.17 10.6058 15.1206 10.5923C15.0742 10.5816 15.0295 10.5643 14.9879 10.5409C14.9421 10.5148 14.8986 10.4849 14.8579 10.4515C14.8116 10.4132 14.7673 10.3725 14.7252 10.3296V11.2911C14.7289 11.3044 14.7289 11.3184 14.7252 11.3317C14.7129 11.3444 14.6981 11.3545 14.6819 11.3615C14.655 11.3719 14.6267 11.3782 14.5979 11.3805C14.5547 11.3839 14.5112 11.3839 14.4679 11.3805C14.4299 11.3811 14.3919 11.3793 14.3542 11.375C14.3263 11.3725 14.299 11.3662 14.2729 11.3561C14.2563 11.3498 14.2414 11.3396 14.2296 11.3263C14.2215 11.3142 14.2168 11.3002 14.216 11.2857L14.2133 8.42567ZM11.7813 7.77296C11.7787 7.74653 11.7817 7.71985 11.7901 7.69466C11.7985 7.66946 11.8121 7.64631 11.83 7.62671C11.8455 7.61208 11.8638 7.6007 11.8839 7.59326C11.9039 7.58582 11.9251 7.58246 11.9465 7.58338H12.6615H12.8402H12.9675C13.0705 7.59782 13.1708 7.62701 13.2654 7.67004C13.351 7.70763 13.4277 7.76302 13.4902 7.83255C13.5544 7.89991 13.6033 7.98026 13.6338 8.06817C13.6697 8.17355 13.6863 8.28459 13.6825 8.39588C13.6825 8.4873 13.6707 8.57834 13.6473 8.66671C13.6242 8.74457 13.5895 8.81852 13.5444 8.88609C13.4975 8.94969 13.4408 9.00545 13.3765 9.05129C13.3065 9.10072 13.2299 9.13993 13.149 9.16775C13.1895 9.18889 13.2276 9.21432 13.2627 9.24359C13.3011 9.27664 13.3356 9.31388 13.3656 9.35463C13.3997 9.40155 13.4297 9.4514 13.455 9.50359C13.4866 9.56511 13.5146 9.62841 13.539 9.69317L13.7719 10.2755C13.7935 10.335 13.8071 10.3757 13.8152 10.4028C13.8172 10.4244 13.8172 10.4461 13.8152 10.4678C13.8183 10.4811 13.8183 10.495 13.8152 10.5084C13.8056 10.5228 13.7912 10.5334 13.7746 10.5382C13.7446 10.5468 13.7137 10.5523 13.6825 10.5544H13.371C13.3425 10.5509 13.3144 10.5445 13.2871 10.5355C13.2694 10.5299 13.2541 10.5184 13.2438 10.503C13.2339 10.489 13.2266 10.4734 13.2221 10.4569L12.9756 9.79609C12.9458 9.72025 12.916 9.65525 12.889 9.59567C12.8638 9.5439 12.8319 9.49564 12.7942 9.45213C12.7604 9.41393 12.7189 9.38345 12.6723 9.36275C12.6225 9.34223 12.5691 9.33209 12.5152 9.33296H12.3419V10.4623C12.3457 10.4756 12.3457 10.4897 12.3419 10.503C12.3297 10.5171 12.3137 10.5274 12.2958 10.5328C12.2611 10.547 12.2247 10.557 12.1875 10.5625H12.0521H11.9167C11.8873 10.559 11.8582 10.5526 11.83 10.5436C11.8126 10.5389 11.7973 10.5284 11.7867 10.5138C11.7828 10.5005 11.7828 10.4864 11.7867 10.4732L11.7813 7.77296Z" fill="url(#paint3_linear)"/>
<path d="M14.9554 10.0208C15.0133 10.0735 15.0884 10.1034 15.1667 10.1048C15.2311 10.1077 15.2945 10.0875 15.3454 10.0479C15.3964 10.0073 15.4372 9.95533 15.4646 9.89621C15.4981 9.83051 15.5218 9.76025 15.535 9.68767C15.5489 9.6108 15.5562 9.53287 15.5567 9.45476C15.5573 9.37042 15.5509 9.28617 15.5377 9.20288C15.5272 9.12928 15.5072 9.05735 15.4781 8.98892C15.4516 8.93075 15.4117 8.87969 15.3617 8.83996C15.3227 8.81268 15.2779 8.79502 15.2308 8.78843C15.1837 8.78183 15.1357 8.7865 15.0908 8.80205C15.0524 8.81513 15.016 8.83335 14.9825 8.85621C14.9421 8.88672 14.9049 8.92119 14.8714 8.95913C14.8279 9.00723 14.7872 9.05788 14.7496 9.1108V9.78517C14.8095 9.87087 14.8785 9.94987 14.9554 10.0208V10.0208Z" fill="url(#paint4_linear)"/>
<path d="M12.8348 8.85086C12.8903 8.83353 12.9412 8.8039 12.9837 8.76419C13.0243 8.72825 13.055 8.68259 13.0731 8.63149C13.0931 8.57589 13.1032 8.51723 13.1029 8.45815C13.1052 8.37098 13.0836 8.28483 13.0406 8.20899C12.9935 8.13886 12.9221 8.08868 12.8402 8.06815L12.7427 8.04919H12.591H12.3419V8.88878H12.6127C12.6884 8.88999 12.7637 8.87713 12.8348 8.85086Z" fill="url(#paint5_linear)"/>
<defs>
<linearGradient id="paint0_linear" x1="16.4162" y1="0.54187" x2="16.4162" y2="10.7006" gradientUnits="userSpaceOnUse">
<stop stop-color="#03AF60"/>
<stop offset="1" stop-color="#0ACD9D"/>
</linearGradient>
<linearGradient id="paint1_linear" x1="3.49783" y1="15.4429" x2="3.49783" y2="25.4583" gradientUnits="userSpaceOnUse">
<stop stop-color="#03AF60"/>
<stop offset="1" stop-color="#0ACD9D"/>
</linearGradient>
<linearGradient id="paint2_linear" x1="16.631" y1="16.5132" x2="16.631" y2="24.3696" gradientUnits="userSpaceOnUse">
<stop stop-color="#03AF60"/>
<stop offset="1" stop-color="#0ACD9D"/>
</linearGradient>
<linearGradient id="paint3_linear" x1="13.933" y1="3.46313" x2="13.933" y2="15.1668" gradientUnits="userSpaceOnUse">
<stop stop-color="#03AF60"/>
<stop offset="1" stop-color="#0ACD9D"/>
</linearGradient>
<linearGradient id="paint4_linear" x1="15.1531" y1="8.78552" x2="15.1531" y2="10.105" gradientUnits="userSpaceOnUse">
<stop stop-color="#03AF60"/>
<stop offset="1" stop-color="#0ACD9D"/>
</linearGradient>
<linearGradient id="paint5_linear" x1="12.7225" y1="8.04919" x2="12.7225" y2="8.88886" gradientUnits="userSpaceOnUse">
<stop stop-color="#03AF60"/>
<stop offset="1" stop-color="#0ACD9D"/>
</linearGradient>
</defs>
</svg>
